<svg width="1280" height="640" viewBox="0 0 1280 640" fill="none" xmlns="http://www.w3.org/2000/svg">
    <rect width="1280" height="640" fill="white" />
    <path d="M554.632 156.032L601.11 177.351C605.83 179.516 611.23 179.656 616.055 177.737L726.025 134" stroke="#474747" stroke-width="16.8" />
    <path d="M560.054 320.791L581.391 274.32C583.559 269.598 583.698 264.193 581.776 259.365L538.001 149.405" stroke="#474747" stroke-width="16.8" />
    <path d="M725.45 315.949L678.972 294.63C674.252 292.465 668.852 292.326 664.027 294.245L554.057 337.98" stroke="#474747" stroke-width="16.8" />
    <path d="M719.946 150.616L698.609 197.087C696.441 201.81 696.302 207.214 698.224 212.043L741.999 322.003" stroke="#474747" stroke-width="16.8" />
    <ellipse cx="36.0914" cy="36.0459" rx="36.0914" ry="36.0459" transform="matrix(1 0 -7.17442e-05 1 604.006 199.99)" fill="#FF4D4D" />
    <path opacity="0.95" d="M381.233 471.98V364.46H398.436V407.161H450.506V364.46H467.709V471.98H450.506V422.982H398.436V471.98H381.233ZM525.097 474.284C516.905 474.284 509.711 472.62 503.516 469.292C497.321 465.913 492.483 461.203 489.001 455.161C485.571 449.12 483.855 442.105 483.855 434.118C483.855 428.281 484.854 422.905 486.851 417.99C488.847 413.024 491.663 408.723 495.299 405.088C498.934 401.452 503.183 398.636 508.047 396.64C512.963 394.643 518.313 393.644 524.099 393.644C530.396 393.644 536.003 394.771 540.918 397.024C545.833 399.225 549.903 402.323 553.129 406.316C556.406 410.31 558.71 414.995 560.041 420.371C561.423 425.696 561.654 431.481 560.732 437.728H500.06C499.958 442.284 500.956 446.278 503.055 449.708C505.155 453.088 508.15 455.724 512.041 457.619C515.983 459.513 520.617 460.46 525.942 460.46C530.243 460.46 534.39 459.82 538.383 458.54C542.428 457.209 546.089 455.264 549.366 452.704L555.894 464.838C553.436 466.835 550.467 468.55 546.985 469.984C543.503 471.366 539.868 472.416 536.079 473.132C532.291 473.9 528.63 474.284 525.097 474.284ZM501.059 425.286H544.143C543.99 419.552 542.147 415.046 538.614 411.769C535.132 408.492 530.166 406.854 523.715 406.854C517.468 406.854 512.271 408.492 508.124 411.769C504.028 415.046 501.673 419.552 501.059 425.286ZM575.211 471.98V395.948H592.107V406.393C594.155 403.424 596.511 401.017 599.173 399.174C601.835 397.28 604.651 395.897 607.621 395.027C610.591 394.105 613.611 393.644 616.683 393.644C622.879 393.644 628.024 395.001 632.12 397.715C636.267 400.428 639.186 403.91 640.875 408.16C644.664 402.63 649.067 398.841 654.085 396.793C659.103 394.694 664.146 393.644 669.215 393.644C676.229 393.644 681.835 395.027 686.034 397.792C690.232 400.556 693.253 404.115 695.096 408.467C696.991 412.819 697.938 417.299 697.938 421.907V471.98H681.042V426.822C681.042 421.548 679.583 417.299 676.664 414.073C673.797 410.796 669.599 409.158 664.069 409.158C660.434 409.158 657.183 409.952 654.315 411.539C651.448 413.126 649.17 415.328 647.48 418.144C645.842 420.908 645.023 424.108 645.023 427.744V471.98H628.127V426.822C628.127 421.548 626.693 417.299 623.826 414.073C620.959 410.796 616.735 409.158 611.154 409.158C607.57 409.158 604.319 409.952 601.4 411.539C598.533 413.126 596.255 415.328 594.565 418.144C592.927 420.908 592.107 424.108 592.107 427.744V471.98H575.211ZM752.353 474.284C744.161 474.284 736.967 472.62 730.772 469.292C724.577 465.913 719.739 461.203 716.257 455.161C712.827 449.12 711.111 442.105 711.111 434.118C711.111 428.281 712.11 422.905 714.107 417.99C716.103 413.024 718.919 408.723 722.555 405.088C726.19 401.452 730.439 398.636 735.303 396.64C740.219 394.643 745.569 393.644 751.355 393.644C757.652 393.644 763.259 394.771 768.174 397.024C773.089 399.225 777.159 402.323 780.385 406.316C783.662 410.31 785.966 414.995 787.297 420.371C788.679 425.696 788.91 431.481 787.988 437.728H727.316C727.214 442.284 728.212 446.278 730.311 449.708C732.411 453.088 735.406 455.724 739.297 457.619C743.239 459.513 747.873 460.46 753.198 460.46C757.499 460.46 761.646 459.82 765.639 458.54C769.684 457.209 773.345 455.264 776.622 452.704L783.15 464.838C780.692 466.835 777.723 468.55 774.241 469.984C770.759 471.366 767.124 472.416 763.335 473.132C759.547 473.9 755.886 474.284 752.353 474.284ZM728.315 425.286H771.399C771.246 419.552 769.403 415.046 765.87 411.769C762.388 408.492 757.422 406.854 750.971 406.854C744.724 406.854 739.527 408.492 735.38 411.769C731.284 415.046 728.929 419.552 728.315 425.286ZM823.587 474.284C818.314 474.284 813.68 473.312 809.687 471.366C805.693 469.369 802.57 466.579 800.317 462.995C798.115 459.36 797.015 455.084 797.015 450.169C797.015 446.022 798.064 442.284 800.163 438.956C802.263 435.577 805.514 432.787 809.917 430.585C814.371 428.384 820.08 426.924 827.043 426.208C834.007 425.44 842.378 425.542 852.157 426.515L852.464 438.188C845.501 437.216 839.511 436.806 834.493 436.96C829.475 437.113 825.354 437.753 822.128 438.88C818.954 439.955 816.599 441.414 815.063 443.257C813.578 445.049 812.835 447.123 812.835 449.478C812.835 453.164 814.141 456.006 816.752 458.003C819.415 460 823.05 460.998 827.658 460.998C831.6 460.998 835.133 460.281 838.256 458.848C841.379 457.414 843.837 455.392 845.629 452.78C847.472 450.169 848.394 447.097 848.394 443.564V423.366C848.394 419.987 847.677 417.068 846.243 414.611C844.81 412.102 842.634 410.156 839.715 408.774C836.797 407.392 833.162 406.7 828.81 406.7C824.816 406.7 820.874 407.315 816.983 408.544C813.091 409.721 809.379 411.59 805.847 414.15L801.085 401.708C805.847 398.483 810.813 396.204 815.984 394.873C821.155 393.542 826.122 392.876 830.883 392.876C837.949 392.876 843.991 394.003 849.008 396.256C854.077 398.457 857.968 401.811 860.682 406.316C863.395 410.771 864.752 416.403 864.752 423.212V471.98H849.546V462.995C846.986 466.63 843.427 469.42 838.871 471.366C834.314 473.312 829.219 474.284 823.587 474.284ZM884.145 471.98V395.948H901.041V471.98H884.145ZM892.593 382.355C889.573 382.355 886.961 381.382 884.76 379.436C882.558 377.491 881.457 374.931 881.457 371.756C881.457 368.633 882.558 366.099 884.76 364.153C886.961 362.156 889.573 361.158 892.593 361.158C895.614 361.158 898.225 362.156 900.427 364.153C902.629 366.099 903.729 368.633 903.729 371.756C903.729 374.931 902.629 377.491 900.427 379.436C898.225 381.382 895.614 382.355 892.593 382.355Z" fill="#474747" />
</svg>