<svg width="4000" height="1024" viewBox="0 0 4000 1024" fill="none" xmlns="http://www.w3.org/2000/svg">
    <rect width="4000" height="1024" fill="#FF595C" />
    <g clip-path="url(#clip0_772_264)">
        <rect width="400" height="47" transform="matrix(-0.93547 0.353406 0.355028 0.934856 1369.25 146)" fill="#E5E5E5" />
        <rect width="200" height="47" transform="matrix(-0.28063 0.959816 0.960238 0.279182 1321.19 214)" fill="#E5E5E5" />
    </g>
    <g clip-path="url(#clip1_772_264)">
        <rect width="400" height="47" transform="matrix(0.353406 0.93547 0.934856 -0.355028 722 230.75)" fill="#E5E5E5" />
        <rect width="200" height="47" transform="matrix(0.959816 0.28063 0.279182 -0.960238 790 276.132)" fill="#E5E5E5" />
    </g>
    <g clip-path="url(#clip2_772_264)">
        <rect width="400" height="47" transform="matrix(0.93547 -0.353406 -0.355028 -0.934856 804.75 878.085)" fill="#E5E5E5" />
        <rect width="200" height="47" transform="matrix(0.28063 -0.959816 -0.960238 -0.279182 852.811 810.085)" fill="#E5E5E5" />
    </g>
    <g clip-path="url(#clip3_772_264)">
        <rect width="400" height="47" transform="matrix(-0.353406 -0.93547 -0.934856 0.355028 1452.09 793.25)" fill="#E5E5E5" />
        <rect width="200" height="47" transform="matrix(-0.959816 -0.28063 -0.279182 0.960238 1384.09 748.126)" fill="#E5E5E5" />
    </g>
    <ellipse cx="1086.82" cy="512.492" rx="124.873" ry="125.211" transform="rotate(89.2546 1086.82 512.492)" fill="#E5E5E5" />
    <path opacity="0.95" d="M1497.74 687.542V337.542H1553.74V476.542H1723.24V337.542H1779.24V687.542H1723.24V528.042H1553.74V687.542H1497.74ZM1976.05 695.042C1949.39 695.042 1925.97 689.625 1905.8 678.792C1885.64 667.792 1869.89 652.459 1858.55 632.792C1847.39 613.125 1841.8 590.292 1841.8 564.292C1841.8 545.292 1845.05 527.792 1851.55 511.792C1858.05 495.625 1867.22 481.625 1879.05 469.792C1890.89 457.959 1904.72 448.792 1920.55 442.292C1936.55 435.792 1953.97 432.542 1972.8 432.542C1993.3 432.542 2011.55 436.209 2027.55 443.542C2043.55 450.709 2056.8 460.792 2067.3 473.792C2077.97 486.792 2085.47 502.042 2089.8 519.542C2094.3 536.875 2095.05 555.709 2092.05 576.042H1894.55C1894.22 590.875 1897.47 603.875 1904.3 615.042C1911.14 626.042 1920.89 634.625 1933.55 640.792C1946.39 646.959 1961.47 650.042 1978.8 650.042C1992.8 650.042 2006.3 647.959 2019.3 643.792C2032.47 639.459 2044.39 633.125 2055.05 624.792L2076.3 664.292C2068.3 670.792 2058.64 676.375 2047.3 681.042C2035.97 685.542 2024.14 688.959 2011.8 691.292C1999.47 693.792 1987.55 695.042 1976.05 695.042ZM1897.8 535.542H2038.05C2037.55 516.875 2031.55 502.209 2020.05 491.542C2008.72 480.875 1992.55 475.542 1971.55 475.542C1951.22 475.542 1934.3 480.875 1920.8 491.542C1907.47 502.209 1899.8 516.875 1897.8 535.542ZM2149.19 687.542V440.042H2204.19V474.042C2210.85 464.375 2218.52 456.542 2227.19 450.542C2235.85 444.375 2245.02 439.875 2254.69 437.042C2264.35 434.042 2274.19 432.542 2284.19 432.542C2304.35 432.542 2321.1 436.959 2334.44 445.792C2347.94 454.625 2357.44 465.959 2362.94 479.792C2375.27 461.792 2389.6 449.459 2405.94 442.792C2422.27 435.959 2438.69 432.542 2455.19 432.542C2478.02 432.542 2496.27 437.042 2509.94 446.042C2523.6 455.042 2533.44 466.625 2539.44 480.792C2545.6 494.959 2548.69 509.542 2548.69 524.542V687.542H2493.69V540.542C2493.69 523.375 2488.94 509.542 2479.44 499.042C2470.1 488.375 2456.44 483.042 2438.44 483.042C2426.6 483.042 2416.02 485.625 2406.69 490.792C2397.35 495.959 2389.94 503.125 2384.44 512.292C2379.1 521.292 2376.44 531.709 2376.44 543.542V687.542H2321.44V540.542C2321.44 523.375 2316.77 509.542 2307.44 499.042C2298.1 488.375 2284.35 483.042 2266.19 483.042C2254.52 483.042 2243.94 485.625 2234.44 490.792C2225.1 495.959 2217.69 503.125 2212.19 512.292C2206.85 521.292 2204.19 531.709 2204.19 543.542V687.542H2149.19ZM2735.82 695.042C2709.15 695.042 2685.74 689.625 2665.57 678.792C2645.4 667.792 2629.65 652.459 2618.32 632.792C2607.15 613.125 2601.57 590.292 2601.57 564.292C2601.57 545.292 2604.82 527.792 2611.32 511.792C2617.82 495.625 2626.99 481.625 2638.82 469.792C2650.65 457.959 2664.49 448.792 2680.32 442.292C2696.32 435.792 2713.74 432.542 2732.57 432.542C2753.07 432.542 2771.32 436.209 2787.32 443.542C2803.32 450.709 2816.57 460.792 2827.07 473.792C2837.74 486.792 2845.24 502.042 2849.57 519.542C2854.07 536.875 2854.82 555.709 2851.82 576.042H2654.32C2653.99 590.875 2657.24 603.875 2664.07 615.042C2670.9 626.042 2680.65 634.625 2693.32 640.792C2706.15 646.959 2721.24 650.042 2738.57 650.042C2752.57 650.042 2766.07 647.959 2779.07 643.792C2792.24 639.459 2804.15 633.125 2814.82 624.792L2836.07 664.292C2828.07 670.792 2818.4 676.375 2807.07 681.042C2795.74 685.542 2783.9 688.959 2771.57 691.292C2759.24 693.792 2747.32 695.042 2735.82 695.042ZM2657.57 535.542H2797.82C2797.32 516.875 2791.32 502.209 2779.82 491.542C2768.49 480.875 2752.32 475.542 2731.32 475.542C2710.99 475.542 2694.07 480.875 2680.57 491.542C2667.24 502.209 2659.57 516.875 2657.57 535.542ZM2977.7 695.042C2960.53 695.042 2945.45 691.875 2932.45 685.542C2919.45 679.042 2909.28 669.959 2901.95 658.292C2894.78 646.459 2891.2 632.542 2891.2 616.542C2891.2 603.042 2894.62 590.875 2901.45 580.042C2908.28 569.042 2918.87 559.959 2933.2 552.792C2947.7 545.625 2966.28 540.875 2988.95 538.542C3011.62 536.042 3038.87 536.375 3070.7 539.542L3071.7 577.542C3049.03 574.375 3029.53 573.042 3013.2 573.542C2996.87 574.042 2983.45 576.125 2972.95 579.792C2962.62 583.292 2954.95 588.042 2949.95 594.042C2945.12 599.875 2942.7 606.625 2942.7 614.292C2942.7 626.292 2946.95 635.542 2955.45 642.042C2964.12 648.542 2975.95 651.792 2990.95 651.792C3003.78 651.792 3015.28 649.459 3025.45 644.792C3035.62 640.125 3043.62 633.542 3049.45 625.042C3055.45 616.542 3058.45 606.542 3058.45 595.042V529.292C3058.45 518.292 3056.12 508.792 3051.45 500.792C3046.78 492.625 3039.7 486.292 3030.2 481.792C3020.7 477.292 3008.87 475.042 2994.7 475.042C2981.7 475.042 2968.87 477.042 2956.2 481.042C2943.53 484.875 2931.45 490.959 2919.95 499.292L2904.45 458.792C2919.95 448.292 2936.12 440.875 2952.95 436.542C2969.78 432.209 2985.95 430.042 3001.45 430.042C3024.45 430.042 3044.12 433.709 3060.45 441.042C3076.95 448.209 3089.62 459.125 3098.45 473.792C3107.28 488.292 3111.7 506.625 3111.7 528.792V687.542H3062.2V658.292C3053.87 670.125 3042.28 679.209 3027.45 685.542C3012.62 691.875 2996.03 695.042 2977.7 695.042ZM3184.83 687.542V440.042H3239.83V687.542H3184.83ZM3212.33 395.792C3202.5 395.792 3194 392.625 3186.83 386.292C3179.66 379.959 3176.08 371.625 3176.08 361.292C3176.08 351.125 3179.66 342.875 3186.83 336.542C3194 330.042 3202.5 326.792 3212.33 326.792C3222.16 326.792 3230.66 330.042 3237.83 336.542C3245 342.875 3248.58 351.125 3248.58 361.292C3248.58 371.625 3245 379.959 3237.83 386.292C3230.66 392.625 3222.16 395.792 3212.33 395.792Z" fill="#E5E5E5" />
    <defs>
        <clipPath id="clip0_772_264">
            <rect width="391" height="273.085" fill="white" transform="translate(995 146)" />
        </clipPath>
        <clipPath id="clip1_772_264">
            <rect width="391" height="273.085" fill="white" transform="matrix(0 -1 1 0 722 605)" />
        </clipPath>
        <clipPath id="clip2_772_264">
            <rect width="391" height="273.085" fill="white" transform="matrix(-1 0 0 -1 1179 878.085)" />
        </clipPath>
        <clipPath id="clip3_772_264">
            <rect width="391" height="273.085" fill="white" transform="matrix(0 1 -1 0 1452.09 419)" />
        </clipPath>
    </defs>
</svg>