<svg width="1024" height="256" viewBox="0 0 1024 256" fill="none" xmlns="http://www.w3.org/2000/svg">
    <rect width="1024" height="256" fill="white" />
    <g clip-path="url(#clip0_772_264)">
        <rect width="100" height="11.75" transform="matrix(-0.93547 0.353406 0.355028 0.934856 353.812 36)" fill="black" />
        <rect width="50" height="11.75" transform="matrix(-0.28063 0.959816 0.960238 0.279182 341.797 53)" fill="black" />
    </g>
    <g clip-path="url(#clip1_772_264)">
        <rect width="100" height="11.75" transform="matrix(0.353406 0.93547 0.934856 -0.355028 192 57.1875)" fill="black" />
        <rect width="50" height="11.75" transform="matrix(0.959816 0.28063 0.279182 -0.960238 209 68.5332)" fill="black" />
    </g>
    <g clip-path="url(#clip2_772_264)">
        <rect width="100" height="11.75" transform="matrix(0.93547 -0.353406 -0.355028 -0.934856 212.688 219.021)" fill="black" />
        <rect width="50" height="11.75" transform="matrix(0.28063 -0.959816 -0.960238 -0.279182 224.703 202.021)" fill="black" />
    </g>
    <g clip-path="url(#clip3_772_264)">
        <rect width="100" height="11.75" transform="matrix(-0.353406 -0.93547 -0.934856 0.355028 374.521 197.812)" fill="black" />
        <rect width="50" height="11.75" transform="matrix(-0.959816 -0.28063 -0.279182 0.960238 357.521 186.531)" fill="black" />
    </g>
    <ellipse cx="283.206" cy="127.623" rx="31.2183" ry="31.3027" transform="rotate(89.2546 283.206 127.623)" fill="#FF0000" />
    <path opacity="0.95" d="M385.936 171.511V84.0107H399.936V118.761H442.311V84.0107H456.311V171.511H442.311V131.636H399.936V171.511H385.936ZM505.513 173.386C498.847 173.386 492.992 172.032 487.951 169.323C482.909 166.573 478.972 162.74 476.138 157.823C473.347 152.907 471.951 147.198 471.951 140.698C471.951 135.948 472.763 131.573 474.388 127.573C476.013 123.532 478.305 120.032 481.263 117.073C484.222 114.115 487.68 111.823 491.638 110.198C495.638 108.573 499.992 107.761 504.701 107.761C509.826 107.761 514.388 108.677 518.388 110.511C522.388 112.302 525.701 114.823 528.326 118.073C530.992 121.323 532.867 125.136 533.951 129.511C535.076 133.844 535.263 138.552 534.513 143.636H485.138C485.055 147.344 485.867 150.594 487.576 153.386C489.284 156.136 491.722 158.282 494.888 159.823C498.097 161.365 501.867 162.136 506.201 162.136C509.701 162.136 513.076 161.615 516.326 160.573C519.617 159.49 522.597 157.907 525.263 155.823L530.576 165.698C528.576 167.323 526.159 168.719 523.326 169.886C520.492 171.011 517.534 171.865 514.451 172.448C511.367 173.073 508.388 173.386 505.513 173.386ZM485.951 133.511H521.013C520.888 128.844 519.388 125.177 516.513 122.511C513.68 119.844 509.638 118.511 504.388 118.511C499.305 118.511 495.076 119.844 491.701 122.511C488.367 125.177 486.451 128.844 485.951 133.511ZM548.796 171.511V109.636H562.546V118.136C564.213 115.719 566.13 113.761 568.296 112.261C570.463 110.719 572.755 109.594 575.171 108.886C577.588 108.136 580.046 107.761 582.546 107.761C587.588 107.761 591.776 108.865 595.109 111.073C598.484 113.282 600.859 116.115 602.234 119.573C605.317 115.073 608.901 111.99 612.984 110.323C617.067 108.615 621.171 107.761 625.296 107.761C631.005 107.761 635.567 108.886 638.984 111.136C642.401 113.386 644.859 116.282 646.359 119.823C647.901 123.365 648.671 127.011 648.671 130.761V171.511H634.921V134.761C634.921 130.469 633.734 127.011 631.359 124.386C629.026 121.719 625.609 120.386 621.109 120.386C618.151 120.386 615.505 121.032 613.171 122.323C610.838 123.615 608.984 125.407 607.609 127.698C606.276 129.948 605.609 132.552 605.609 135.511V171.511H591.859V134.761C591.859 130.469 590.692 127.011 588.359 124.386C586.026 121.719 582.588 120.386 578.046 120.386C575.13 120.386 572.484 121.032 570.109 122.323C567.776 123.615 565.921 125.407 564.546 127.698C563.213 129.948 562.546 132.552 562.546 135.511V171.511H548.796ZM695.455 173.386C688.788 173.386 682.934 172.032 677.892 169.323C672.85 166.573 668.913 162.74 666.08 157.823C663.288 152.907 661.892 147.198 661.892 140.698C661.892 135.948 662.705 131.573 664.33 127.573C665.955 123.532 668.246 120.032 671.205 117.073C674.163 114.115 677.621 111.823 681.58 110.198C685.58 108.573 689.934 107.761 694.642 107.761C699.767 107.761 704.33 108.677 708.33 110.511C712.33 112.302 715.642 114.823 718.267 118.073C720.934 121.323 722.809 125.136 723.892 129.511C725.017 133.844 725.205 138.552 724.455 143.636H675.08C674.996 147.344 675.809 150.594 677.517 153.386C679.225 156.136 681.663 158.282 684.83 159.823C688.038 161.365 691.809 162.136 696.142 162.136C699.642 162.136 703.017 161.615 706.267 160.573C709.559 159.49 712.538 157.907 715.205 155.823L720.517 165.698C718.517 167.323 716.1 168.719 713.267 169.886C710.434 171.011 707.475 171.865 704.392 172.448C701.309 173.073 698.33 173.386 695.455 173.386ZM675.892 133.511H710.955C710.83 128.844 709.33 125.177 706.455 122.511C703.621 119.844 699.58 118.511 694.33 118.511C689.246 118.511 685.017 119.844 681.642 122.511C678.309 125.177 676.392 128.844 675.892 133.511ZM755.925 173.386C751.634 173.386 747.863 172.594 744.613 171.011C741.363 169.386 738.821 167.115 736.988 164.198C735.196 161.24 734.3 157.761 734.3 153.761C734.3 150.386 735.154 147.344 736.863 144.636C738.571 141.886 741.217 139.615 744.8 137.823C748.425 136.032 753.071 134.844 758.738 134.261C764.404 133.636 771.217 133.719 779.175 134.511L779.425 144.011C773.759 143.219 768.884 142.886 764.8 143.011C760.717 143.136 757.363 143.657 754.738 144.573C752.154 145.448 750.238 146.636 748.988 148.136C747.779 149.594 747.175 151.282 747.175 153.198C747.175 156.198 748.238 158.511 750.363 160.136C752.529 161.761 755.488 162.573 759.238 162.573C762.446 162.573 765.321 161.99 767.863 160.823C770.404 159.657 772.404 158.011 773.863 155.886C775.363 153.761 776.113 151.261 776.113 148.386V131.948C776.113 129.198 775.529 126.823 774.363 124.823C773.196 122.782 771.425 121.198 769.05 120.073C766.675 118.948 763.717 118.386 760.175 118.386C756.925 118.386 753.717 118.886 750.55 119.886C747.384 120.844 744.363 122.365 741.488 124.448L737.613 114.323C741.488 111.698 745.529 109.844 749.738 108.761C753.946 107.677 757.988 107.136 761.863 107.136C767.613 107.136 772.529 108.052 776.613 109.886C780.738 111.677 783.904 114.407 786.113 118.073C788.321 121.698 789.425 126.282 789.425 131.823V171.511H777.05V164.198C774.967 167.157 772.071 169.427 768.363 171.011C764.654 172.594 760.509 173.386 755.925 173.386ZM807.708 171.511V109.636H821.458V171.511H807.708ZM814.583 98.5732C812.124 98.5732 809.999 97.7816 808.208 96.1982C806.416 94.6149 805.52 92.5316 805.52 89.9482C805.52 87.4066 806.416 85.3441 808.208 83.7607C809.999 82.1357 812.124 81.3232 814.583 81.3232C817.041 81.3232 819.166 82.1357 820.958 83.7607C822.749 85.3441 823.645 87.4066 823.645 89.9482C823.645 92.5316 822.749 94.6149 820.958 96.1982C819.166 97.7816 817.041 98.5732 814.583 98.5732Z" fill="black" />
    <defs>
        <clipPath id="clip0_772_264">
            <rect width="97.75" height="68.2712" fill="white" transform="translate(260.25 36)" />
        </clipPath>
        <clipPath id="clip1_772_264">
            <rect width="97.75" height="68.2712" fill="white" transform="matrix(0 -1 1 0 192 150.75)" />
        </clipPath>
        <clipPath id="clip2_772_264">
            <rect width="97.75" height="68.2712" fill="white" transform="matrix(-1 0 0 -1 306.25 219.021)" />
        </clipPath>
        <clipPath id="clip3_772_264">
            <rect width="97.75" height="68.2712" fill="white" transform="matrix(0 1 -1 0 374.521 104.25)" />
        </clipPath>
    </defs>
</svg>