<svg width="1280" height="640" viewBox="0 0 1280 640" fill="none" xmlns="http://www.w3.org/2000/svg">
    <rect width="1280" height="640" fill="white" />
    <rect width="17.5088" height="70.0761" transform="matrix(0.342251 -0.939609 0.939777 0.341789 247.088 231.729)" fill="black" />
    <rect width="17.5088" height="144.532" transform="matrix(-0.342251 -0.939609 0.939777 -0.341789 325.216 255.851)" fill="black" />
    <rect width="17.519" height="70.0351" transform="matrix(-0.939777 -0.341789 0.342251 -0.939609 264.762 424.615)" fill="black" />
    <rect width="17.519" height="144.447" transform="matrix(-0.939777 0.341789 -0.342251 -0.939609 288.901 346.548)" fill="black" />
    <rect width="17.5088" height="70.0761" transform="matrix(-0.342251 0.939609 -0.939777 -0.341789 454.471 408.271)" fill="black" />
    <rect width="17.5088" height="144.532" transform="matrix(0.342251 0.939609 -0.939777 0.341789 376.343 384.149)" fill="black" />
    <rect width="17.519" height="70.0351" transform="matrix(0.939777 0.341789 -0.342251 0.939609 437.238 215.2)" fill="black" />
    <rect width="17.519" height="144.447" transform="matrix(0.939777 -0.341789 0.342251 0.939609 413.099 293.268)" fill="black" />
    <ellipse cx="42.0494" cy="42.0173" rx="42.0494" ry="42.0173" transform="matrix(1 0 -7.17085e-05 1 309.292 277.791)" fill="#FF0000" />
    <path opacity="0.95" d="M485.951 376V264H503.871V308.48H558.111V264H576.031V376H558.111V324.96H503.871V376H485.951ZM639.009 378.4C630.476 378.4 622.983 376.667 616.529 373.2C610.076 369.68 605.036 364.773 601.409 358.48C597.836 352.187 596.049 344.88 596.049 336.56C596.049 330.48 597.089 324.88 599.169 319.76C601.249 314.587 604.183 310.107 607.969 306.32C611.756 302.533 616.183 299.6 621.249 297.52C626.369 295.44 631.943 294.4 637.969 294.4C644.529 294.4 650.369 295.573 655.489 297.92C660.609 300.213 664.849 303.44 668.209 307.6C671.623 311.76 674.023 316.64 675.409 322.24C676.849 327.787 677.089 333.813 676.129 340.32H612.929C612.823 345.067 613.863 349.227 616.049 352.8C618.236 356.32 621.356 359.067 625.409 361.04C629.516 363.013 634.343 364 639.889 364C644.369 364 648.689 363.333 652.849 362C657.063 360.613 660.876 358.587 664.289 355.92L671.089 368.56C668.529 370.64 665.436 372.427 661.809 373.92C658.183 375.36 654.396 376.453 650.449 377.2C646.503 378 642.689 378.4 639.009 378.4ZM613.969 327.36H658.849C658.689 321.387 656.769 316.693 653.089 313.28C649.463 309.867 644.289 308.16 637.569 308.16C631.063 308.16 625.649 309.867 621.329 313.28C617.063 316.693 614.609 321.387 613.969 327.36ZM694.412 376V296.8H712.012V307.68C714.145 304.587 716.599 302.08 719.372 300.16C722.145 298.187 725.079 296.747 728.172 295.84C731.265 294.88 734.412 294.4 737.612 294.4C744.065 294.4 749.425 295.813 753.692 298.64C758.012 301.467 761.052 305.093 762.812 309.52C766.759 303.76 771.345 299.813 776.572 297.68C781.799 295.493 787.052 294.4 792.332 294.4C799.639 294.4 805.479 295.84 809.852 298.72C814.225 301.6 817.372 305.307 819.292 309.84C821.265 314.373 822.252 319.04 822.252 323.84V376H804.652V328.96C804.652 323.467 803.132 319.04 800.092 315.68C797.105 312.267 792.732 310.56 786.972 310.56C783.185 310.56 779.799 311.387 776.812 313.04C773.825 314.693 771.452 316.987 769.692 319.92C767.985 322.8 767.132 326.133 767.132 329.92V376H749.532V328.96C749.532 323.467 748.039 319.04 745.052 315.68C742.065 312.267 737.665 310.56 731.852 310.56C728.119 310.56 724.732 311.387 721.692 313.04C718.705 314.693 716.332 316.987 714.572 319.92C712.865 322.8 712.012 326.133 712.012 329.92V376H694.412ZM882.134 378.4C873.601 378.4 866.108 376.667 859.654 373.2C853.201 369.68 848.161 364.773 844.534 358.48C840.961 352.187 839.174 344.88 839.174 336.56C839.174 330.48 840.214 324.88 842.294 319.76C844.374 314.587 847.308 310.107 851.094 306.32C854.881 302.533 859.308 299.6 864.374 297.52C869.494 295.44 875.068 294.4 881.094 294.4C887.654 294.4 893.494 295.573 898.614 297.92C903.734 300.213 907.974 303.44 911.334 307.6C914.748 311.76 917.148 316.64 918.534 322.24C919.974 327.787 920.214 333.813 919.254 340.32H856.054C855.948 345.067 856.988 349.227 859.174 352.8C861.361 356.32 864.481 359.067 868.534 361.04C872.641 363.013 877.468 364 883.014 364C887.494 364 891.814 363.333 895.974 362C900.188 360.613 904.001 358.587 907.414 355.92L914.214 368.56C911.654 370.64 908.561 372.427 904.934 373.92C901.308 375.36 897.521 376.453 893.574 377.2C889.628 378 885.814 378.4 882.134 378.4ZM857.094 327.36H901.974C901.814 321.387 899.894 316.693 896.214 313.28C892.588 309.867 887.414 308.16 880.694 308.16C874.188 308.16 868.774 309.867 864.454 313.28C860.188 316.693 857.734 321.387 857.094 327.36ZM959.537 378.4C954.044 378.4 949.217 377.387 945.057 375.36C940.897 373.28 937.644 370.373 935.297 366.64C933.004 362.853 931.857 358.4 931.857 353.28C931.857 348.96 932.95 345.067 935.137 341.6C937.324 338.08 940.71 335.173 945.297 332.88C949.937 330.587 955.884 329.067 963.137 328.32C970.39 327.52 979.11 327.627 989.297 328.64L989.617 340.8C982.364 339.787 976.124 339.36 970.897 339.52C965.67 339.68 961.377 340.347 958.017 341.52C954.71 342.64 952.257 344.16 950.657 346.08C949.11 347.947 948.337 350.107 948.337 352.56C948.337 356.4 949.697 359.36 952.417 361.44C955.19 363.52 958.977 364.56 963.777 364.56C967.884 364.56 971.564 363.813 974.817 362.32C978.07 360.827 980.63 358.72 982.497 356C984.417 353.28 985.377 350.08 985.377 346.4V325.36C985.377 321.84 984.63 318.8 983.137 316.24C981.644 313.627 979.377 311.6 976.337 310.16C973.297 308.72 969.51 308 964.977 308C960.817 308 956.71 308.64 952.657 309.92C948.604 311.147 944.737 313.093 941.057 315.76L936.097 302.8C941.057 299.44 946.23 297.067 951.617 295.68C957.004 294.293 962.177 293.6 967.137 293.6C974.497 293.6 980.79 294.773 986.017 297.12C991.297 299.413 995.35 302.907 998.177 307.6C1001 312.24 1002.42 318.107 1002.42 325.2V376H986.577V366.64C983.91 370.427 980.204 373.333 975.457 375.36C970.71 377.387 965.404 378.4 959.537 378.4ZM1025.82 376V296.8H1043.42V376H1025.82ZM1034.62 282.64C1031.47 282.64 1028.75 281.627 1026.46 279.6C1024.16 277.573 1023.02 274.907 1023.02 271.6C1023.02 268.347 1024.16 265.707 1026.46 263.68C1028.75 261.6 1031.47 260.56 1034.62 260.56C1037.76 260.56 1040.48 261.6 1042.78 263.68C1045.07 265.707 1046.22 268.347 1046.22 271.6C1046.22 274.907 1045.07 277.573 1042.78 279.6C1040.48 281.627 1037.76 282.64 1034.62 282.64Z" fill="black" />
</svg>