<svg width="3000" height="1024" viewBox="0 0 3000 1024" fill="none" xmlns="http://www.w3.org/2000/svg">
<g clip-path="url(#clip0_771_44)">
<rect width="400" height="47" transform="matrix(-0.93547 0.353406 0.355028 0.934856 869.25 146)" fill="#E5E5E5"/>
<rect width="200" height="47" transform="matrix(-0.28063 0.959816 0.960238 0.279182 821.189 214)" fill="#E5E5E5"/>
</g>
<g clip-path="url(#clip1_771_44)">
<rect width="400" height="47" transform="matrix(0.353406 0.93547 0.934856 -0.355028 222 230.75)" fill="#E5E5E5"/>
<rect width="200" height="47" transform="matrix(0.959816 0.28063 0.279182 -0.960238 290 276.132)" fill="#E5E5E5"/>
</g>
<g clip-path="url(#clip2_771_44)">
<rect width="400" height="47" transform="matrix(0.93547 -0.353406 -0.355028 -0.934856 304.75 878.085)" fill="#E5E5E5"/>
<rect width="200" height="47" transform="matrix(0.28063 -0.959816 -0.960238 -0.279182 352.811 810.085)" fill="#E5E5E5"/>
</g>
<g clip-path="url(#clip3_771_44)">
<rect width="400" height="47" transform="matrix(-0.353406 -0.93547 -0.934856 0.355028 952.086 793.25)" fill="#E5E5E5"/>
<rect width="200" height="47" transform="matrix(-0.959816 -0.28063 -0.279182 0.960238 884.086 748.126)" fill="#E5E5E5"/>
</g>
<ellipse cx="586.825" cy="512.492" rx="124.873" ry="125.211" transform="rotate(89.2546 586.825 512.492)" fill="#E5E5E5"/>
<path opacity="0.95" d="M997.744 687.542V337.542H1053.74V476.542H1223.24V337.542H1279.24V687.542H1223.24V528.042H1053.74V687.542H997.744ZM1476.05 695.042C1449.39 695.042 1425.97 689.625 1405.8 678.792C1385.64 667.792 1369.89 652.459 1358.55 632.792C1347.39 613.125 1341.8 590.292 1341.8 564.292C1341.8 545.292 1345.05 527.792 1351.55 511.792C1358.05 495.625 1367.22 481.625 1379.05 469.792C1390.89 457.959 1404.72 448.792 1420.55 442.292C1436.55 435.792 1453.97 432.542 1472.8 432.542C1493.3 432.542 1511.55 436.209 1527.55 443.542C1543.55 450.709 1556.8 460.792 1567.3 473.792C1577.97 486.792 1585.47 502.042 1589.8 519.542C1594.3 536.875 1595.05 555.709 1592.05 576.042H1394.55C1394.22 590.875 1397.47 603.875 1404.3 615.042C1411.14 626.042 1420.89 634.625 1433.55 640.792C1446.39 646.959 1461.47 650.042 1478.8 650.042C1492.8 650.042 1506.3 647.959 1519.3 643.792C1532.47 639.459 1544.39 633.125 1555.05 624.792L1576.3 664.292C1568.3 670.792 1558.64 676.375 1547.3 681.042C1535.97 685.542 1524.14 688.959 1511.8 691.292C1499.47 693.792 1487.55 695.042 1476.05 695.042ZM1397.8 535.542H1538.05C1537.55 516.875 1531.55 502.209 1520.05 491.542C1508.72 480.875 1492.55 475.542 1471.55 475.542C1451.22 475.542 1434.3 480.875 1420.8 491.542C1407.47 502.209 1399.8 516.875 1397.8 535.542ZM1649.19 687.542V440.042H1704.19V474.042C1710.85 464.375 1718.52 456.542 1727.19 450.542C1735.85 444.375 1745.02 439.875 1754.69 437.042C1764.35 434.042 1774.19 432.542 1784.19 432.542C1804.35 432.542 1821.1 436.959 1834.44 445.792C1847.94 454.625 1857.44 465.959 1862.94 479.792C1875.27 461.792 1889.6 449.459 1905.94 442.792C1922.27 435.959 1938.69 432.542 1955.19 432.542C1978.02 432.542 1996.27 437.042 2009.94 446.042C2023.6 455.042 2033.44 466.625 2039.44 480.792C2045.6 494.959 2048.69 509.542 2048.69 524.542V687.542H1993.69V540.542C1993.69 523.375 1988.94 509.542 1979.44 499.042C1970.1 488.375 1956.44 483.042 1938.44 483.042C1926.6 483.042 1916.02 485.625 1906.69 490.792C1897.35 495.959 1889.94 503.125 1884.44 512.292C1879.1 521.292 1876.44 531.709 1876.44 543.542V687.542H1821.44V540.542C1821.44 523.375 1816.77 509.542 1807.44 499.042C1798.1 488.375 1784.35 483.042 1766.19 483.042C1754.52 483.042 1743.94 485.625 1734.44 490.792C1725.1 495.959 1717.69 503.125 1712.19 512.292C1706.85 521.292 1704.19 531.709 1704.19 543.542V687.542H1649.19ZM2235.82 695.042C2209.15 695.042 2185.74 689.625 2165.57 678.792C2145.4 667.792 2129.65 652.459 2118.32 632.792C2107.15 613.125 2101.57 590.292 2101.57 564.292C2101.57 545.292 2104.82 527.792 2111.32 511.792C2117.82 495.625 2126.99 481.625 2138.82 469.792C2150.65 457.959 2164.49 448.792 2180.32 442.292C2196.32 435.792 2213.74 432.542 2232.57 432.542C2253.07 432.542 2271.32 436.209 2287.32 443.542C2303.32 450.709 2316.57 460.792 2327.07 473.792C2337.74 486.792 2345.24 502.042 2349.57 519.542C2354.07 536.875 2354.82 555.709 2351.82 576.042H2154.32C2153.99 590.875 2157.24 603.875 2164.07 615.042C2170.9 626.042 2180.65 634.625 2193.32 640.792C2206.15 646.959 2221.24 650.042 2238.57 650.042C2252.57 650.042 2266.07 647.959 2279.07 643.792C2292.24 639.459 2304.15 633.125 2314.82 624.792L2336.07 664.292C2328.07 670.792 2318.4 676.375 2307.07 681.042C2295.74 685.542 2283.9 688.959 2271.57 691.292C2259.24 693.792 2247.32 695.042 2235.82 695.042ZM2157.57 535.542H2297.82C2297.32 516.875 2291.32 502.209 2279.82 491.542C2268.49 480.875 2252.32 475.542 2231.32 475.542C2210.99 475.542 2194.07 480.875 2180.57 491.542C2167.24 502.209 2159.57 516.875 2157.57 535.542ZM2477.7 695.042C2460.53 695.042 2445.45 691.875 2432.45 685.542C2419.45 679.042 2409.28 669.959 2401.95 658.292C2394.78 646.459 2391.2 632.542 2391.2 616.542C2391.2 603.042 2394.62 590.875 2401.45 580.042C2408.28 569.042 2418.87 559.959 2433.2 552.792C2447.7 545.625 2466.28 540.875 2488.95 538.542C2511.62 536.042 2538.87 536.375 2570.7 539.542L2571.7 577.542C2549.03 574.375 2529.53 573.042 2513.2 573.542C2496.87 574.042 2483.45 576.125 2472.95 579.792C2462.62 583.292 2454.95 588.042 2449.95 594.042C2445.12 599.875 2442.7 606.625 2442.7 614.292C2442.7 626.292 2446.95 635.542 2455.45 642.042C2464.12 648.542 2475.95 651.792 2490.95 651.792C2503.78 651.792 2515.28 649.459 2525.45 644.792C2535.62 640.125 2543.62 633.542 2549.45 625.042C2555.45 616.542 2558.45 606.542 2558.45 595.042V529.292C2558.45 518.292 2556.12 508.792 2551.45 500.792C2546.78 492.625 2539.7 486.292 2530.2 481.792C2520.7 477.292 2508.87 475.042 2494.7 475.042C2481.7 475.042 2468.87 477.042 2456.2 481.042C2443.53 484.875 2431.45 490.959 2419.95 499.292L2404.45 458.792C2419.95 448.292 2436.12 440.875 2452.95 436.542C2469.78 432.209 2485.95 430.042 2501.45 430.042C2524.45 430.042 2544.12 433.709 2560.45 441.042C2576.95 448.209 2589.62 459.125 2598.45 473.792C2607.28 488.292 2611.7 506.625 2611.7 528.792V687.542H2562.2V658.292C2553.87 670.125 2542.28 679.209 2527.45 685.542C2512.62 691.875 2496.03 695.042 2477.7 695.042ZM2684.83 687.542V440.042H2739.83V687.542H2684.83ZM2712.33 395.792C2702.5 395.792 2694 392.625 2686.83 386.292C2679.66 379.959 2676.08 371.625 2676.08 361.292C2676.08 351.125 2679.66 342.875 2686.83 336.542C2694 330.042 2702.5 326.792 2712.33 326.792C2722.16 326.792 2730.66 330.042 2737.83 336.542C2745 342.875 2748.58 351.125 2748.58 361.292C2748.58 371.625 2745 379.959 2737.83 386.292C2730.66 392.625 2722.16 395.792 2712.33 395.792Z" fill="#E5E5E5"/>
<defs>
<clipPath id="clip0_771_44">
<rect width="391" height="273.085" fill="white" transform="translate(495 146)"/>
</clipPath>
<clipPath id="clip1_771_44">
<rect width="391" height="273.085" fill="white" transform="matrix(0 -1 1 0 222 605)"/>
</clipPath>
<clipPath id="clip2_771_44">
<rect width="391" height="273.085" fill="white" transform="matrix(-1 0 0 -1 679 878.085)"/>
</clipPath>
<clipPath id="clip3_771_44">
<rect width="391" height="273.085" fill="white" transform="matrix(0 1 -1 0 952.086 419)"/>
</clipPath>
</defs>
</svg>
