<svg width="3000" height="1024" viewBox="0 0 3000 1024" fill="none" xmlns="http://www.w3.org/2000/svg">
<rect width="3000" height="1024" fill="white"/>
<g clip-path="url(#clip0_592_2)">
<rect width="400" height="47" transform="matrix(-0.93547 0.353406 0.355028 0.934856 847.25 146)" fill="black"/>
<rect width="200" height="47" transform="matrix(-0.28063 0.959816 0.960238 0.279182 799.188 214)" fill="black"/>
</g>
<g clip-path="url(#clip1_592_2)">
<rect width="400" height="47" transform="matrix(0.353406 0.93547 0.934856 -0.355028 200 230.749)" fill="black"/>
<rect width="200" height="47" transform="matrix(0.959816 0.28063 0.279182 -0.960238 268 276.131)" fill="black"/>
</g>
<g clip-path="url(#clip2_592_2)">
<rect width="400" height="47" transform="matrix(0.93547 -0.353406 -0.355028 -0.934856 282.75 878.085)" fill="black"/>
<rect width="200" height="47" transform="matrix(0.28063 -0.959816 -0.960238 -0.279182 330.811 810.085)" fill="black"/>
</g>
<g clip-path="url(#clip3_592_2)">
<rect width="400" height="47" transform="matrix(-0.353406 -0.93547 -0.934856 0.355028 930.085 793.251)" fill="black"/>
<rect width="200" height="47" transform="matrix(-0.959816 -0.28063 -0.279182 0.960238 862.085 748.126)" fill="black"/>
</g>
<ellipse cx="564.825" cy="512.492" rx="124.873" ry="125.211" transform="rotate(89.2546 564.825 512.492)" fill="#FF0000"/>
<path opacity="0.95" d="M1019.74 687.542V337.542H1075.74V476.542H1245.24V337.542H1301.24V687.542H1245.24V528.042H1075.74V687.542H1019.74ZM1498.05 695.042C1471.39 695.042 1447.97 689.626 1427.8 678.792C1407.64 667.792 1391.89 652.459 1380.55 632.792C1369.39 613.126 1363.8 590.292 1363.8 564.292C1363.8 545.292 1367.05 527.792 1373.55 511.792C1380.05 495.626 1389.22 481.626 1401.05 469.792C1412.89 457.959 1426.72 448.792 1442.55 442.292C1458.55 435.792 1475.97 432.542 1494.8 432.542C1515.3 432.542 1533.55 436.209 1549.55 443.542C1565.55 450.709 1578.8 460.792 1589.3 473.792C1599.97 486.792 1607.47 502.042 1611.8 519.542C1616.3 536.876 1617.05 555.709 1614.05 576.042H1416.55C1416.22 590.876 1419.47 603.876 1426.3 615.042C1433.14 626.042 1442.89 634.626 1455.55 640.792C1468.39 646.959 1483.47 650.042 1500.8 650.042C1514.8 650.042 1528.3 647.959 1541.3 643.792C1554.47 639.459 1566.39 633.126 1577.05 624.792L1598.3 664.292C1590.3 670.792 1580.64 676.376 1569.3 681.042C1557.97 685.542 1546.14 688.959 1533.8 691.292C1521.47 693.792 1509.55 695.042 1498.05 695.042ZM1419.8 535.542H1560.05C1559.55 516.876 1553.55 502.209 1542.05 491.542C1530.72 480.876 1514.55 475.542 1493.55 475.542C1473.22 475.542 1456.3 480.876 1442.8 491.542C1429.47 502.209 1421.8 516.876 1419.8 535.542ZM1671.19 687.542V440.042H1726.19V474.042C1732.85 464.376 1740.52 456.542 1749.19 450.542C1757.85 444.376 1767.02 439.876 1776.69 437.042C1786.35 434.042 1796.19 432.542 1806.19 432.542C1826.35 432.542 1843.1 436.959 1856.44 445.792C1869.94 454.626 1879.44 465.959 1884.94 479.792C1897.27 461.792 1911.6 449.459 1927.94 442.792C1944.27 435.959 1960.69 432.542 1977.19 432.542C2000.02 432.542 2018.27 437.042 2031.94 446.042C2045.6 455.042 2055.44 466.626 2061.44 480.792C2067.6 494.959 2070.69 509.542 2070.69 524.542V687.542H2015.69V540.542C2015.69 523.376 2010.94 509.542 2001.44 499.042C1992.1 488.376 1978.44 483.042 1960.44 483.042C1948.6 483.042 1938.02 485.626 1928.69 490.792C1919.35 495.959 1911.94 503.126 1906.44 512.292C1901.1 521.292 1898.44 531.709 1898.44 543.542V687.542H1843.44V540.542C1843.44 523.376 1838.77 509.542 1829.44 499.042C1820.1 488.376 1806.35 483.042 1788.19 483.042C1776.52 483.042 1765.94 485.626 1756.44 490.792C1747.1 495.959 1739.69 503.126 1734.19 512.292C1728.85 521.292 1726.19 531.709 1726.19 543.542V687.542H1671.19ZM2257.82 695.042C2231.15 695.042 2207.74 689.626 2187.57 678.792C2167.4 667.792 2151.65 652.459 2140.32 632.792C2129.15 613.126 2123.57 590.292 2123.57 564.292C2123.57 545.292 2126.82 527.792 2133.32 511.792C2139.82 495.626 2148.99 481.626 2160.82 469.792C2172.65 457.959 2186.49 448.792 2202.32 442.292C2218.32 435.792 2235.74 432.542 2254.57 432.542C2275.07 432.542 2293.32 436.209 2309.32 443.542C2325.32 450.709 2338.57 460.792 2349.07 473.792C2359.74 486.792 2367.24 502.042 2371.57 519.542C2376.07 536.876 2376.82 555.709 2373.82 576.042H2176.32C2175.99 590.876 2179.24 603.876 2186.07 615.042C2192.9 626.042 2202.65 634.626 2215.32 640.792C2228.15 646.959 2243.24 650.042 2260.57 650.042C2274.57 650.042 2288.07 647.959 2301.07 643.792C2314.24 639.459 2326.15 633.126 2336.82 624.792L2358.07 664.292C2350.07 670.792 2340.4 676.376 2329.07 681.042C2317.74 685.542 2305.9 688.959 2293.57 691.292C2281.24 693.792 2269.32 695.042 2257.82 695.042ZM2179.57 535.542H2319.82C2319.32 516.876 2313.32 502.209 2301.82 491.542C2290.49 480.876 2274.32 475.542 2253.32 475.542C2232.99 475.542 2216.07 480.876 2202.57 491.542C2189.24 502.209 2181.57 516.876 2179.57 535.542ZM2499.7 695.042C2482.53 695.042 2467.45 691.876 2454.45 685.542C2441.45 679.042 2431.28 669.959 2423.95 658.292C2416.78 646.459 2413.2 632.542 2413.2 616.542C2413.2 603.042 2416.62 590.876 2423.45 580.042C2430.28 569.042 2440.87 559.959 2455.2 552.792C2469.7 545.626 2488.28 540.876 2510.95 538.542C2533.62 536.042 2560.87 536.376 2592.7 539.542L2593.7 577.542C2571.03 574.376 2551.53 573.042 2535.2 573.542C2518.87 574.042 2505.45 576.126 2494.95 579.792C2484.62 583.292 2476.95 588.042 2471.95 594.042C2467.12 599.876 2464.7 606.626 2464.7 614.292C2464.7 626.292 2468.95 635.542 2477.45 642.042C2486.12 648.542 2497.95 651.792 2512.95 651.792C2525.78 651.792 2537.28 649.459 2547.45 644.792C2557.62 640.126 2565.62 633.542 2571.45 625.042C2577.45 616.542 2580.45 606.542 2580.45 595.042V529.292C2580.45 518.292 2578.12 508.792 2573.45 500.792C2568.78 492.626 2561.7 486.292 2552.2 481.792C2542.7 477.292 2530.87 475.042 2516.7 475.042C2503.7 475.042 2490.87 477.042 2478.2 481.042C2465.53 484.876 2453.45 490.959 2441.95 499.292L2426.45 458.792C2441.95 448.292 2458.12 440.876 2474.95 436.542C2491.78 432.209 2507.95 430.042 2523.45 430.042C2546.45 430.042 2566.12 433.709 2582.45 441.042C2598.95 448.209 2611.62 459.126 2620.45 473.792C2629.28 488.292 2633.7 506.626 2633.7 528.792V687.542H2584.2V658.292C2575.87 670.126 2564.28 679.209 2549.45 685.542C2534.62 691.876 2518.03 695.042 2499.7 695.042ZM2706.83 687.542V440.042H2761.83V687.542H2706.83ZM2734.33 395.792C2724.5 395.792 2716 392.626 2708.83 386.292C2701.66 379.959 2698.08 371.626 2698.08 361.292C2698.08 351.126 2701.66 342.876 2708.83 336.542C2716 330.042 2724.5 326.792 2734.33 326.792C2744.16 326.792 2752.66 330.042 2759.83 336.542C2767 342.876 2770.58 351.126 2770.58 361.292C2770.58 371.626 2767 379.959 2759.83 386.292C2752.66 392.626 2744.16 395.792 2734.33 395.792Z" fill="black"/>
<defs>
<clipPath id="clip0_592_2">
<rect width="391" height="273.085" fill="white" transform="translate(473 146)"/>
</clipPath>
<clipPath id="clip1_592_2">
<rect width="391" height="273.085" fill="white" transform="matrix(0 -1 1 0 200 605)"/>
</clipPath>
<clipPath id="clip2_592_2">
<rect width="391" height="273.085" fill="white" transform="matrix(-1 0 0 -1 657 878.085)"/>
</clipPath>
<clipPath id="clip3_592_2">
<rect width="391" height="273.085" fill="white" transform="matrix(0 1 -1 0 930.085 419)"/>
</clipPath>
</defs>
</svg>
