<svg width="4800" height="1024" viewBox="0 0 4800 1024" fill="none" xmlns="http://www.w3.org/2000/svg">
    <rect width="4800" height="1024" fill="white" />
    <g clip-path="url(#clip0_584_5)">
        <rect width="400" height="47" transform="matrix(-0.93547 0.353406 0.355028 0.934856 1747.25 146)" fill="black" />
        <rect width="200" height="47" transform="matrix(-0.28063 0.959816 0.960238 0.279182 1699.19 214)" fill="black" />
    </g>
    <g clip-path="url(#clip1_584_5)">
        <rect width="400" height="47" transform="matrix(0.353406 0.93547 0.934856 -0.355028 1100 230.749)" fill="black" />
        <rect width="200" height="47" transform="matrix(0.959816 0.28063 0.279182 -0.960238 1168 276.131)" fill="black" />
    </g>
    <g clip-path="url(#clip2_584_5)">
        <rect width="400" height="47" transform="matrix(0.93547 -0.353406 -0.355028 -0.934856 1182.75 878.085)" fill="black" />
        <rect width="200" height="47" transform="matrix(0.28063 -0.959816 -0.960238 -0.279182 1230.81 810.085)" fill="black" />
    </g>
    <g clip-path="url(#clip3_584_5)">
        <rect width="400" height="47" transform="matrix(-0.353406 -0.93547 -0.934856 0.355028 1830.09 793.251)" fill="black" />
        <rect width="200" height="47" transform="matrix(-0.959816 -0.28063 -0.279182 0.960238 1762.09 748.126)" fill="black" />
    </g>
    <ellipse cx="1464.82" cy="512.492" rx="124.873" ry="125.211" transform="rotate(89.2546 1464.82 512.492)" fill="#FF0000" />
    <path opacity="0.95" d="M1919.74 687.542V337.542H1975.74V476.542H2145.24V337.542H2201.24V687.542H2145.24V528.042H1975.74V687.542H1919.74ZM2398.05 695.042C2371.39 695.042 2347.97 689.626 2327.8 678.792C2307.64 667.792 2291.89 652.459 2280.55 632.792C2269.39 613.126 2263.8 590.292 2263.8 564.292C2263.8 545.292 2267.05 527.792 2273.55 511.792C2280.05 495.626 2289.22 481.626 2301.05 469.792C2312.89 457.959 2326.72 448.792 2342.55 442.292C2358.55 435.792 2375.97 432.542 2394.8 432.542C2415.3 432.542 2433.55 436.209 2449.55 443.542C2465.55 450.709 2478.8 460.792 2489.3 473.792C2499.97 486.792 2507.47 502.042 2511.8 519.542C2516.3 536.876 2517.05 555.709 2514.05 576.042H2316.55C2316.22 590.876 2319.47 603.876 2326.3 615.042C2333.14 626.042 2342.89 634.626 2355.55 640.792C2368.39 646.959 2383.47 650.042 2400.8 650.042C2414.8 650.042 2428.3 647.959 2441.3 643.792C2454.47 639.459 2466.39 633.126 2477.05 624.792L2498.3 664.292C2490.3 670.792 2480.64 676.376 2469.3 681.042C2457.97 685.542 2446.14 688.959 2433.8 691.292C2421.47 693.792 2409.55 695.042 2398.05 695.042ZM2319.8 535.542H2460.05C2459.55 516.876 2453.55 502.209 2442.05 491.542C2430.72 480.876 2414.55 475.542 2393.55 475.542C2373.22 475.542 2356.3 480.876 2342.8 491.542C2329.47 502.209 2321.8 516.876 2319.8 535.542ZM2571.19 687.542V440.042H2626.19V474.042C2632.85 464.376 2640.52 456.542 2649.19 450.542C2657.85 444.376 2667.02 439.876 2676.69 437.042C2686.35 434.042 2696.19 432.542 2706.19 432.542C2726.35 432.542 2743.1 436.959 2756.44 445.792C2769.94 454.626 2779.44 465.959 2784.94 479.792C2797.27 461.792 2811.6 449.459 2827.94 442.792C2844.27 435.959 2860.69 432.542 2877.19 432.542C2900.02 432.542 2918.27 437.042 2931.94 446.042C2945.6 455.042 2955.44 466.626 2961.44 480.792C2967.6 494.959 2970.69 509.542 2970.69 524.542V687.542H2915.69V540.542C2915.69 523.376 2910.94 509.542 2901.44 499.042C2892.1 488.376 2878.44 483.042 2860.44 483.042C2848.6 483.042 2838.02 485.626 2828.69 490.792C2819.35 495.959 2811.94 503.126 2806.44 512.292C2801.1 521.292 2798.44 531.709 2798.44 543.542V687.542H2743.44V540.542C2743.44 523.376 2738.77 509.542 2729.44 499.042C2720.1 488.376 2706.35 483.042 2688.19 483.042C2676.52 483.042 2665.94 485.626 2656.44 490.792C2647.1 495.959 2639.69 503.126 2634.19 512.292C2628.85 521.292 2626.19 531.709 2626.19 543.542V687.542H2571.19ZM3157.82 695.042C3131.15 695.042 3107.74 689.626 3087.57 678.792C3067.4 667.792 3051.65 652.459 3040.32 632.792C3029.15 613.126 3023.57 590.292 3023.57 564.292C3023.57 545.292 3026.82 527.792 3033.32 511.792C3039.82 495.626 3048.99 481.626 3060.82 469.792C3072.65 457.959 3086.49 448.792 3102.32 442.292C3118.32 435.792 3135.74 432.542 3154.57 432.542C3175.07 432.542 3193.32 436.209 3209.32 443.542C3225.32 450.709 3238.57 460.792 3249.07 473.792C3259.74 486.792 3267.24 502.042 3271.57 519.542C3276.07 536.876 3276.82 555.709 3273.82 576.042H3076.32C3075.99 590.876 3079.24 603.876 3086.07 615.042C3092.9 626.042 3102.65 634.626 3115.32 640.792C3128.15 646.959 3143.24 650.042 3160.57 650.042C3174.57 650.042 3188.07 647.959 3201.07 643.792C3214.24 639.459 3226.15 633.126 3236.82 624.792L3258.07 664.292C3250.07 670.792 3240.4 676.376 3229.07 681.042C3217.74 685.542 3205.9 688.959 3193.57 691.292C3181.24 693.792 3169.32 695.042 3157.82 695.042ZM3079.57 535.542H3219.82C3219.32 516.876 3213.32 502.209 3201.82 491.542C3190.49 480.876 3174.32 475.542 3153.32 475.542C3132.99 475.542 3116.07 480.876 3102.57 491.542C3089.24 502.209 3081.57 516.876 3079.57 535.542ZM3399.7 695.042C3382.53 695.042 3367.45 691.876 3354.45 685.542C3341.45 679.042 3331.28 669.959 3323.95 658.292C3316.78 646.459 3313.2 632.542 3313.2 616.542C3313.2 603.042 3316.62 590.876 3323.45 580.042C3330.28 569.042 3340.87 559.959 3355.2 552.792C3369.7 545.626 3388.28 540.876 3410.95 538.542C3433.62 536.042 3460.87 536.376 3492.7 539.542L3493.7 577.542C3471.03 574.376 3451.53 573.042 3435.2 573.542C3418.87 574.042 3405.45 576.126 3394.95 579.792C3384.62 583.292 3376.95 588.042 3371.95 594.042C3367.12 599.876 3364.7 606.626 3364.7 614.292C3364.7 626.292 3368.95 635.542 3377.45 642.042C3386.12 648.542 3397.95 651.792 3412.95 651.792C3425.78 651.792 3437.28 649.459 3447.45 644.792C3457.62 640.126 3465.62 633.542 3471.45 625.042C3477.45 616.542 3480.45 606.542 3480.45 595.042V529.292C3480.45 518.292 3478.12 508.792 3473.45 500.792C3468.78 492.626 3461.7 486.292 3452.2 481.792C3442.7 477.292 3430.87 475.042 3416.7 475.042C3403.7 475.042 3390.87 477.042 3378.2 481.042C3365.53 484.876 3353.45 490.959 3341.95 499.292L3326.45 458.792C3341.95 448.292 3358.12 440.876 3374.95 436.542C3391.78 432.209 3407.95 430.042 3423.45 430.042C3446.45 430.042 3466.12 433.709 3482.45 441.042C3498.95 448.209 3511.62 459.126 3520.45 473.792C3529.28 488.292 3533.7 506.626 3533.7 528.792V687.542H3484.2V658.292C3475.87 670.126 3464.28 679.209 3449.45 685.542C3434.62 691.876 3418.03 695.042 3399.7 695.042ZM3606.83 687.542V440.042H3661.83V687.542H3606.83ZM3634.33 395.792C3624.5 395.792 3616 392.626 3608.83 386.292C3601.66 379.959 3598.08 371.626 3598.08 361.292C3598.08 351.126 3601.66 342.876 3608.83 336.542C3616 330.042 3624.5 326.792 3634.33 326.792C3644.16 326.792 3652.66 330.042 3659.83 336.542C3667 342.876 3670.58 351.126 3670.58 361.292C3670.58 371.626 3667 379.959 3659.83 386.292C3652.66 392.626 3644.16 395.792 3634.33 395.792Z" fill="black" />
    <defs>
        <clipPath id="clip0_584_5">
            <rect width="391" height="273.085" fill="white" transform="translate(1373 146)" />
        </clipPath>
        <clipPath id="clip1_584_5">
            <rect width="391" height="273.085" fill="white" transform="matrix(0 -1 1 0 1100 605)" />
        </clipPath>
        <clipPath id="clip2_584_5">
            <rect width="391" height="273.085" fill="white" transform="matrix(-1 0 0 -1 1557 878.085)" />
        </clipPath>
        <clipPath id="clip3_584_5">
            <rect width="391" height="273.085" fill="white" transform="matrix(0 1 -1 0 1830.09 419)" />
        </clipPath>
    </defs>
</svg>