<svg width="1280" height="640" viewBox="0 0 1280 640" fill="none" xmlns="http://www.w3.org/2000/svg">
    <rect width="1280" height="640" fill="#FDFCFC" />
    <path d="M554.632 156.032L601.11 177.351C605.83 179.516 611.23 179.656 616.055 177.737L726.025 134" stroke="#474747" stroke-width="16.8" />
    <path d="M560.054 320.791L581.391 274.32C583.559 269.598 583.698 264.193 581.776 259.365L538.001 149.405" stroke="#474747" stroke-width="16.8" />
    <path d="M725.45 315.949L678.972 294.63C674.252 292.465 668.852 292.326 664.027 294.245L554.057 337.98" stroke="#474747" stroke-width="16.8" />
    <path d="M719.946 150.616L698.609 197.087C696.441 201.81 696.302 207.214 698.224 212.043L741.999 322.003" stroke="#474747" stroke-width="16.8" />
    <ellipse cx="36.0914" cy="36.0459" rx="36.0914" ry="36.0459" transform="matrix(1 0 -7.17442e-05 1 604.006 199.99)" fill="#FF4D4D" />
    <path opacity="0.95" d="M365.873 471.98V364.46H383.076V407.161H435.146V364.46H452.349V471.98H435.146V422.982H383.076V471.98H365.873ZM515.881 474.284C507.689 474.284 500.495 472.62 494.3 469.292C488.105 465.913 483.267 461.203 479.785 455.161C476.355 449.12 474.639 442.105 474.639 434.118C474.639 428.281 475.638 422.905 477.635 417.99C479.631 413.024 482.447 408.723 486.083 405.088C489.718 401.452 493.967 398.636 498.831 396.64C503.747 394.643 509.097 393.644 514.883 393.644C521.18 393.644 526.787 394.771 531.702 397.024C536.617 399.225 540.687 402.323 543.913 406.316C547.19 410.31 549.494 414.995 550.825 420.371C552.207 425.696 552.438 431.481 551.516 437.728H490.844C490.742 442.284 491.74 446.278 493.839 449.708C495.939 453.088 498.934 455.724 502.825 457.619C506.767 459.513 511.401 460.46 516.726 460.46C521.027 460.46 525.174 459.82 529.167 458.54C533.212 457.209 536.873 455.264 540.15 452.704L546.678 464.838C544.22 466.835 541.251 468.55 537.769 469.984C534.287 471.366 530.652 472.416 526.863 473.132C523.075 473.9 519.414 474.284 515.881 474.284ZM491.843 425.286H534.927C534.774 419.552 532.931 415.046 529.398 411.769C525.916 408.492 520.95 406.854 514.499 406.854C508.252 406.854 503.055 408.492 498.908 411.769C494.812 415.046 492.457 419.552 491.843 425.286ZM572.139 471.98V395.948H589.035V406.393C591.083 403.424 593.439 401.017 596.101 399.174C598.763 397.28 601.579 395.897 604.549 395.027C607.519 394.105 610.539 393.644 613.611 393.644C619.807 393.644 624.952 395.001 629.048 397.715C633.195 400.428 636.114 403.91 637.803 408.16C641.592 402.63 645.995 398.841 651.013 396.793C656.031 394.694 661.074 393.644 666.143 393.644C673.157 393.644 678.763 395.027 682.962 397.792C687.16 400.556 690.181 404.115 692.024 408.467C693.919 412.819 694.866 417.299 694.866 421.907V471.98H677.97V426.822C677.97 421.548 676.511 417.299 673.592 414.073C670.725 410.796 666.527 409.158 660.997 409.158C657.362 409.158 654.111 409.952 651.243 411.539C648.376 413.126 646.098 415.328 644.408 418.144C642.77 420.908 641.951 424.108 641.951 427.744V471.98H625.055V426.822C625.055 421.548 623.621 417.299 620.754 414.073C617.887 410.796 613.663 409.158 608.082 409.158C604.498 409.158 601.247 409.952 598.328 411.539C595.461 413.126 593.183 415.328 591.493 418.144C589.855 420.908 589.035 424.108 589.035 427.744V471.98H572.139ZM755.425 474.284C747.233 474.284 740.039 472.62 733.844 469.292C727.649 465.913 722.811 461.203 719.329 455.161C715.899 449.12 714.183 442.105 714.183 434.118C714.183 428.281 715.182 422.905 717.179 417.99C719.175 413.024 721.991 408.723 725.627 405.088C729.262 401.452 733.511 398.636 738.375 396.64C743.291 394.643 748.641 393.644 754.427 393.644C760.724 393.644 766.331 394.771 771.246 397.024C776.161 399.225 780.231 402.323 783.457 406.316C786.734 410.31 789.038 414.995 790.369 420.371C791.751 425.696 791.982 431.481 791.06 437.728H730.388C730.286 442.284 731.284 446.278 733.383 449.708C735.483 453.088 738.478 455.724 742.369 457.619C746.311 459.513 750.945 460.46 756.27 460.46C760.571 460.46 764.718 459.82 768.711 458.54C772.756 457.209 776.417 455.264 779.694 452.704L786.222 464.838C783.764 466.835 780.795 468.55 777.313 469.984C773.831 471.366 770.196 472.416 766.407 473.132C762.619 473.9 758.958 474.284 755.425 474.284ZM731.387 425.286H774.471C774.318 419.552 772.475 415.046 768.942 411.769C765.46 408.492 760.494 406.854 754.043 406.854C747.796 406.854 742.599 408.492 738.452 411.769C734.356 415.046 732.001 419.552 731.387 425.286ZM832.803 474.284C827.53 474.284 822.896 473.312 818.903 471.366C814.909 469.369 811.786 466.579 809.533 462.995C807.331 459.36 806.231 455.084 806.231 450.169C806.231 446.022 807.28 442.284 809.379 438.956C811.479 435.577 814.73 432.787 819.133 430.585C823.587 428.384 829.296 426.924 836.259 426.208C843.223 425.44 851.594 425.542 861.373 426.515L861.68 438.188C854.717 437.216 848.727 436.806 843.709 436.96C838.691 437.113 834.57 437.753 831.344 438.88C828.17 439.955 825.815 441.414 824.279 443.257C822.794 445.049 822.051 447.123 822.051 449.478C822.051 453.164 823.357 456.006 825.968 458.003C828.631 460 832.266 460.998 836.874 460.998C840.816 460.998 844.349 460.281 847.472 458.848C850.595 457.414 853.053 455.392 854.845 452.78C856.688 450.169 857.61 447.097 857.61 443.564V423.366C857.61 419.987 856.893 417.068 855.459 414.611C854.026 412.102 851.85 410.156 848.931 408.774C846.013 407.392 842.378 406.7 838.026 406.7C834.032 406.7 830.09 407.315 826.199 408.544C822.307 409.721 818.595 411.59 815.063 414.15L810.301 401.708C815.063 398.483 820.029 396.204 825.2 394.873C830.371 393.542 835.338 392.876 840.099 392.876C847.165 392.876 853.207 394.003 858.224 396.256C863.293 398.457 867.184 401.811 869.898 406.316C872.611 410.771 873.968 416.403 873.968 423.212V471.98H858.762V462.995C856.202 466.63 852.643 469.42 848.087 471.366C843.53 473.312 838.435 474.284 832.803 474.284ZM899.505 471.98V395.948H916.401V471.98H899.505ZM907.953 382.355C904.933 382.355 902.321 381.382 900.12 379.436C897.918 377.491 896.817 374.931 896.817 371.756C896.817 368.633 897.918 366.099 900.12 364.153C902.321 362.156 904.933 361.158 907.953 361.158C910.974 361.158 913.585 362.156 915.787 364.153C917.989 366.099 919.089 368.633 919.089 371.756C919.089 374.931 917.989 377.491 915.787 379.436C913.585 381.382 910.974 382.355 907.953 382.355Z" fill="#474747" />
    <circle cx="908" cy="372" r="13" fill="#FF4D4D" />
</svg>