<svg width="1280" height="640" viewBox="0 0 1280 640" fill="none" xmlns="http://www.w3.org/2000/svg">
    <rect width="1280" height="640" fill="white" />
    <g clip-path="url(#clip0_903_2)">
        <rect width="136.62" height="16.0529" transform="matrix(-0.93547 0.353406 0.355028 0.934856 424.308 194.733)" fill="black" />
        <rect width="68.31" height="16.0529" transform="matrix(-0.28063 0.959816 0.960238 0.279182 407.892 217.959)" fill="black" />
    </g>
    <g clip-path="url(#clip1_903_2)">
        <rect width="136.62" height="16.0529" transform="matrix(0.353406 0.93547 0.934856 -0.355028 203.239 223.68)" fill="black" />
        <rect width="68.31" height="16.0529" transform="matrix(0.959816 0.28063 0.279182 -0.960238 226.466 239.18)" fill="black" />
    </g>
    <g clip-path="url(#clip2_903_2)">
        <rect width="136.62" height="16.0529" transform="matrix(0.93547 -0.353406 -0.355028 -0.934856 231.503 444.777)" fill="black" />
        <rect width="68.31" height="16.0529" transform="matrix(0.28063 -0.959816 -0.960238 -0.279182 247.917 421.552)" fill="black" />
    </g>
    <g clip-path="url(#clip3_903_2)">
        <rect width="136.62" height="16.0529" transform="matrix(-0.353406 -0.93547 -0.934856 0.355028 452.601 415.802)" fill="black" />
        <rect width="68.31" height="16.0529" transform="matrix(-0.959816 -0.28063 -0.279182 0.960238 429.376 400.389)" fill="black" />
    </g>
    <ellipse cx="327.845" cy="319.909" rx="42.6505" ry="42.7657" transform="rotate(89.2546 327.845 319.909)" fill="#FF0000" />
    <path opacity="0.95" d="M468.195 379.255V259.713H487.322V307.188H545.215V259.713H564.341V379.255H545.215V324.778H487.322V379.255H468.195ZM631.561 381.817C622.453 381.817 614.455 379.967 607.568 376.267C600.68 372.51 595.3 367.273 591.429 360.556C587.615 353.838 585.708 346.04 585.708 337.159C585.708 330.67 586.818 324.693 589.038 319.228C591.259 313.706 594.389 308.925 598.431 304.883C602.473 300.841 607.198 297.71 612.605 295.49C618.07 293.27 624.019 292.16 630.451 292.16C637.453 292.16 643.686 293.412 649.151 295.917C654.616 298.365 659.142 301.809 662.728 306.249C666.371 310.689 668.933 315.898 670.413 321.875C671.95 327.795 672.206 334.228 671.181 341.173H603.725C603.611 346.239 604.721 350.679 607.055 354.493C609.389 358.25 612.719 361.182 617.046 363.288C621.429 365.394 626.58 366.447 632.501 366.447C637.282 366.447 641.893 365.736 646.333 364.313C650.831 362.833 654.901 360.669 658.544 357.823L665.802 371.314C663.069 373.534 659.768 375.441 655.897 377.035C652.026 378.572 647.984 379.739 643.772 380.536C639.559 381.39 635.489 381.817 631.561 381.817ZM604.835 327.34H652.738C652.567 320.964 650.517 315.955 646.59 312.312C642.719 308.668 637.197 306.847 630.024 306.847C623.08 306.847 617.302 308.668 612.691 312.312C608.137 315.955 605.518 320.964 604.835 327.34ZM690.695 379.255V294.722H709.48V306.334C711.757 303.033 714.376 300.357 717.336 298.308C720.296 296.202 723.427 294.665 726.728 293.697C730.03 292.672 733.389 292.16 736.804 292.16C743.692 292.16 749.413 293.669 753.967 296.686C758.578 299.703 761.823 303.574 763.701 308.298C767.914 302.15 772.809 297.938 778.388 295.661C783.967 293.327 789.574 292.16 795.209 292.16C803.008 292.16 809.241 293.697 813.909 296.771C818.577 299.845 821.936 303.801 823.985 308.64C826.091 313.479 827.144 318.459 827.144 323.583V379.255H808.359V329.048C808.359 323.184 806.737 318.459 803.492 314.873C800.304 311.23 795.636 309.408 789.488 309.408C785.447 309.408 781.832 310.291 778.644 312.055C775.456 313.82 772.923 316.268 771.045 319.399C769.223 322.473 768.312 326.03 768.312 330.072V379.255H749.527V329.048C749.527 323.184 747.933 318.459 744.745 314.873C741.557 311.23 736.861 309.408 730.656 309.408C726.672 309.408 723.057 310.291 719.812 312.055C716.624 313.82 714.091 316.268 712.213 319.399C710.391 322.473 709.48 326.03 709.48 330.072V379.255H690.695ZM891.059 381.817C881.951 381.817 873.953 379.967 867.066 376.267C860.178 372.51 854.798 367.273 850.927 360.556C847.113 353.838 845.206 346.04 845.206 337.159C845.206 330.67 846.316 324.693 848.536 319.228C850.757 313.706 853.887 308.925 857.929 304.883C861.971 300.841 866.696 297.71 872.103 295.49C877.568 293.27 883.517 292.16 889.949 292.16C896.951 292.16 903.184 293.412 908.649 295.917C914.114 298.365 918.64 301.809 922.226 306.249C925.869 310.689 928.431 315.898 929.911 321.875C931.448 327.795 931.704 334.228 930.679 341.173H863.223C863.109 346.239 864.219 350.679 866.553 354.493C868.887 358.25 872.217 361.182 876.544 363.288C880.927 365.394 886.078 366.447 891.999 366.447C896.78 366.447 901.391 365.736 905.831 364.313C910.329 362.833 914.399 360.669 918.042 357.823L925.3 371.314C922.567 373.534 919.266 375.441 915.395 377.035C911.524 378.572 907.482 379.739 903.27 380.536C899.057 381.39 894.987 381.817 891.059 381.817ZM864.333 327.34H912.236C912.065 320.964 910.015 315.955 906.088 312.312C902.217 308.668 896.695 306.847 889.522 306.847C882.578 306.847 876.8 308.668 872.189 312.312C867.635 315.955 865.016 320.964 864.333 327.34ZM973.674 381.817C967.811 381.817 962.659 380.735 958.219 378.572C953.779 376.352 950.307 373.25 947.802 369.265C945.354 365.223 944.13 360.47 944.13 355.005C944.13 350.394 945.297 346.239 947.631 342.539C949.965 338.782 953.58 335.679 958.476 333.232C963.428 330.784 969.775 329.161 977.517 328.364C985.259 327.511 994.566 327.624 1005.44 328.706L1005.78 341.685C998.038 340.603 991.378 340.148 985.8 340.319C980.221 340.489 975.638 341.201 972.052 342.453C968.523 343.649 965.904 345.271 964.196 347.32C962.546 349.313 961.72 351.618 961.72 354.237C961.72 358.335 963.172 361.495 966.075 363.715C969.035 365.935 973.077 367.045 978.2 367.045C982.583 367.045 986.511 366.248 989.983 364.654C993.456 363.06 996.188 360.812 998.181 357.908C1000.23 355.005 1001.25 351.59 1001.25 347.662V325.205C1001.25 321.448 1000.46 318.203 998.864 315.471C997.27 312.682 994.851 310.518 991.606 308.981C988.361 307.444 984.319 306.676 979.481 306.676C975.041 306.676 970.657 307.359 966.331 308.725C962.005 310.035 957.878 312.112 953.95 314.959L948.656 301.126C953.95 297.54 959.472 295.006 965.221 293.526C970.971 292.046 976.492 291.306 981.786 291.306C989.642 291.306 996.359 292.559 1001.94 295.063C1007.57 297.511 1011.9 301.24 1014.92 306.249C1017.93 311.202 1019.44 317.463 1019.44 325.034V379.255H1002.54V369.265C999.689 373.307 995.733 376.409 990.667 378.572C985.6 380.735 979.936 381.817 973.674 381.817ZM1044.42 379.255V294.722H1063.2V379.255H1044.42ZM1053.81 279.608C1050.45 279.608 1047.55 278.527 1045.1 276.363C1042.65 274.2 1041.43 271.354 1041.43 267.825C1041.43 264.352 1042.65 261.534 1045.1 259.371C1047.55 257.151 1050.45 256.041 1053.81 256.041C1057.17 256.041 1060.07 257.151 1062.52 259.371C1064.97 261.534 1066.19 264.352 1066.19 267.825C1066.19 271.354 1064.97 274.2 1062.52 276.363C1060.07 278.527 1057.17 279.608 1053.81 279.608Z" fill="black" />
    <defs>
        <clipPath id="clip0_903_2">
            <rect width="133.546" height="93.2721" fill="white" transform="translate(296.482 194.733)" />
        </clipPath>
        <clipPath id="clip1_903_2">
            <rect width="133.546" height="93.273" fill="white" transform="matrix(0 -1 1 0 203.239 351.505)" />
        </clipPath>
        <clipPath id="clip2_903_2">
            <rect width="133.546" height="93.2721" fill="white" transform="matrix(-1 0 0 -1 359.328 444.777)" />
        </clipPath>
        <clipPath id="clip3_903_2">
            <rect width="133.546" height="93.2713" fill="white" transform="matrix(0 1 -1 0 452.601 287.977)" />
        </clipPath>
    </defs>
</svg>